# Blender v2.93.1 OBJ File: ''
# www.blender.org
mtllib BrickP.mtl
o Cube.001
v -1.000000 1.000000 -1.000000
v 1.000000 1.000000 1.000000
v 1.000000 1.000000 -1.000000
v -1.000000 -1.000000 1.000000
v 1.000000 -1.000000 1.000000
v -1.000000 1.000000 1.000000
v -1.000000 -1.000000 -1.000000
v 1.000000 -1.000000 -1.000000
vt 0.363441 0.320500
vt 0.330012 0.353928
vt 0.330012 0.320500
vt 0.396027 0.404763
vt 0.362598 0.438191
vt 0.362598 0.404763
vt 0.396027 0.304476
vt 0.362598 0.337905
vt 0.362598 0.304476
vt 0.362598 0.371334
vt 0.329170 0.404763
vt 0.329170 0.371334
vt 0.396027 0.371334
vt 0.396027 0.337905
vt 0.363441 0.353928
vt 0.396027 0.438191
vn 0.0000 1.0000 0.0000
vn 0.0000 -0.0000 1.0000
vn -1.0000 -0.0000 0.0000
vn 0.0000 -1.0000 -0.0000
vn 1.0000 -0.0000 0.0000
vn 0.0000 0.0000 -1.0000
usemtl Material.001
s 1
f 1/1/1 2/2/1 3/3/1
f 2/4/2 4/5/2 5/6/2
f 6/7/3 7/8/3 4/9/3
f 8/10/4 4/11/4 7/12/4
f 3/13/5 5/6/5 8/10/5
f 1/14/6 8/10/6 7/8/6
f 1/1/1 6/15/1 2/2/1
f 2/4/2 6/16/2 4/5/2
f 6/7/3 1/14/3 7/8/3
f 8/10/4 5/6/4 4/11/4
f 3/13/5 2/4/5 5/6/5
f 1/14/6 3/13/6 8/10/6
