# Blender v2.93.1 OBJ File: ''
# www.blender.org
mtllib BrickR.mtl
o Cube.001
v -1.000000 1.000000 -1.000000
v 1.000000 1.000000 1.000000
v 1.000000 1.000000 -1.000000
v -1.000000 -1.000000 1.000000
v 1.000000 -1.000000 1.000000
v -1.000000 1.000000 1.000000
v -1.000000 -1.000000 -1.000000
v 1.000000 -1.000000 -1.000000
vt 0.177417 0.331351
vt 0.143988 0.364780
vt 0.143988 0.331351
vt 0.210004 0.415614
vt 0.176575 0.449043
vt 0.176575 0.415614
vt 0.210004 0.315327
vt 0.176575 0.348756
vt 0.176575 0.315327
vt 0.176575 0.382185
vt 0.143146 0.415614
vt 0.143146 0.382185
vt 0.210004 0.382185
vt 0.210004 0.348756
vt 0.177417 0.364780
vt 0.210004 0.449043
vn 0.0000 1.0000 0.0000
vn 0.0000 -0.0000 1.0000
vn -1.0000 -0.0000 0.0000
vn 0.0000 -1.0000 -0.0000
vn 1.0000 -0.0000 0.0000
vn 0.0000 0.0000 -1.0000
usemtl Material.001
s 1
f 1/1/1 2/2/1 3/3/1
f 2/4/2 4/5/2 5/6/2
f 6/7/3 7/8/3 4/9/3
f 8/10/4 4/11/4 7/12/4
f 3/13/5 5/6/5 8/10/5
f 1/14/6 8/10/6 7/8/6
f 1/1/1 6/15/1 2/2/1
f 2/4/2 6/16/2 4/5/2
f 6/7/3 1/14/3 7/8/3
f 8/10/4 5/6/4 4/11/4
f 3/13/5 2/4/5 5/6/5
f 1/14/6 3/13/6 8/10/6
