# Blender v2.93.1 OBJ File: ''
# www.blender.org
mtllib brick.mtl
o Cube
v 1.000000 1.000000 -1.000000
v 1.000000 -1.000000 -1.000000
v 1.000000 1.000000 1.000000
v 1.000000 -1.000000 1.000000
v -1.000000 1.000000 -1.000000
v -1.000000 -1.000000 -1.000000
v -1.000000 1.000000 1.000000
v -1.000000 -1.000000 1.000000
vt 0.983077 0.993497
vt 0.510773 0.993497
vt 0.510773 0.521194
vt 0.983077 0.521194
vt 0.512699 0.512566
vt 0.991705 0.512566
vt 0.991705 0.991571
vt 0.512699 0.991571
vt 0.509681 0.512976
vt 0.991623 0.512976
vt 0.991623 0.994918
vt 0.509681 0.994918
vt 0.508430 0.508297
vt 0.994126 0.508297
vt 0.994126 0.993993
vt 0.508430 0.993993
vt 0.981725 0.979117
vt 0.525780 0.979117
vt 0.525780 0.523172
vt 0.981725 0.523172
vt 0.507700 0.513469
vt 0.990504 0.513469
vt 0.990504 0.996273
vt 0.507700 0.996273
vn 0.0000 1.0000 0.0000
vn 0.0000 0.0000 1.0000
vn -1.0000 0.0000 0.0000
vn 0.0000 -1.0000 0.0000
vn 1.0000 0.0000 0.0000
vn 0.0000 0.0000 -1.0000
usemtl Material
s off
f 1/1/1 5/2/1 7/3/1 3/4/1
f 4/5/2 3/6/2 7/7/2 8/8/2
f 8/9/3 7/10/3 5/11/3 6/12/3
f 6/13/4 2/14/4 4/15/4 8/16/4
f 2/17/5 1/18/5 3/19/5 4/20/5
f 6/21/6 5/22/6 1/23/6 2/24/6
