# Blender v2.93.1 OBJ File: ''
# www.blender.org
mtllib BrickN.mtl
o Cube.001
v -1.000000 1.000000 -1.000000
v 1.000000 1.000000 1.000000
v 1.000000 1.000000 -1.000000
v -1.000000 -1.000000 1.000000
v 1.000000 -1.000000 1.000000
v -1.000000 1.000000 1.000000
v -1.000000 -1.000000 -1.000000
v 1.000000 -1.000000 -1.000000
vt 0.730837 0.201134
vt 0.697408 0.234563
vt 0.697408 0.201134
vt 0.763424 0.285397
vt 0.729995 0.318826
vt 0.729995 0.285397
vt 0.763424 0.185111
vt 0.729995 0.218540
vt 0.729995 0.185111
vt 0.729995 0.251969
vt 0.696566 0.285397
vt 0.696566 0.251969
vt 0.763424 0.251969
vt 0.763424 0.218540
vt 0.730837 0.234563
vt 0.763424 0.318826
vn 0.0000 1.0000 0.0000
vn 0.0000 -0.0000 1.0000
vn -1.0000 -0.0000 0.0000
vn 0.0000 -1.0000 -0.0000
vn 1.0000 -0.0000 0.0000
vn 0.0000 0.0000 -1.0000
usemtl Material.001
s 1
f 1/1/1 2/2/1 3/3/1
f 2/4/2 4/5/2 5/6/2
f 6/7/3 7/8/3 4/9/3
f 8/10/4 4/11/4 7/12/4
f 3/13/5 5/6/5 8/10/5
f 1/14/6 8/10/6 7/8/6
f 1/1/1 6/15/1 2/2/1
f 2/4/2 6/16/2 4/5/2
f 6/7/3 1/14/3 7/8/3
f 8/10/4 5/6/4 4/11/4
f 3/13/5 2/4/5 5/6/5
f 1/14/6 3/13/6 8/10/6
