# Blender v2.93.1 OBJ File: ''
# www.blender.org
mtllib Paddle.mtl
o Cube
v 1.000000 1.000000 -1.000000
v 1.000000 -1.000000 -1.000000
v 1.000000 1.000000 1.000000
v 1.000000 -1.000000 1.000000
v -1.000000 1.000000 -1.000000
v -1.000000 -1.000000 -1.000000
v -1.000000 1.000000 1.000000
v -1.000000 -1.000000 1.000000
vt 0.997169 0.004521
vt 0.006722 0.994968
vt 0.006722 0.004521
vt 0.019005 0.982685
vt 0.980995 0.020695
vt 0.980995 0.982685
vt 0.010887 0.984967
vt 0.984201 0.011653
vt 0.984201 0.984967
vt 0.987934 0.014777
vt 0.013087 0.989624
vt 0.013087 0.014777
vt 0.984410 0.017791
vt 0.015590 0.986610
vt 0.015590 0.017791
vt 0.986823 0.013433
vt 0.018089 0.982166
vt 0.018089 0.013433
vt 0.997169 0.994968
vt 0.019005 0.020695
vt 0.010887 0.011653
vt 0.987934 0.989624
vt 0.984410 0.986610
vt 0.986823 0.982166
vn 0.0000 1.0000 0.0000
vn 0.0000 0.0000 1.0000
vn -1.0000 0.0000 0.0000
vn 0.0000 -1.0000 0.0000
vn 1.0000 0.0000 0.0000
vn 0.0000 0.0000 -1.0000
usemtl Material
s off
f 5/1/1 3/2/1 1/3/1
f 3/4/2 8/5/2 4/6/2
f 7/7/3 6/8/3 8/9/3
f 2/10/4 8/11/4 6/12/4
f 1/13/5 4/14/5 2/15/5
f 5/16/6 2/17/6 6/18/6
f 5/1/1 7/19/1 3/2/1
f 3/4/2 7/20/2 8/5/2
f 7/7/3 5/21/3 6/8/3
f 2/10/4 4/22/4 8/11/4
f 1/13/5 3/23/5 4/14/5
f 5/16/6 1/24/6 2/17/6
