# Blender v2.93.1 OBJ File: ''
# www.blender.org
mtllib Paddle.mtl
o Cube
v -3.000000 1.000000 -0.500000
v -3.000000 -1.000000 -0.500000
v 3.000000 1.000000 -0.500000
v 3.000000 -1.000000 -0.500000
v -3.000000 1.000000 0.500000
v -3.000000 -1.000000 0.500000
v 3.000000 1.000000 0.500000
v 3.000000 -1.000000 0.500000
vt 0.980517 0.514749
vt 0.510172 0.985094
vt 0.510172 0.514749
vt 0.319430 0.371283
vt 0.196195 0.494518
vt 0.196195 0.371283
vt 0.294627 0.269760
vt 0.171392 0.392995
vt 0.171392 0.269760
vt 0.196195 0.248047
vt 0.072959 0.371283
vt 0.072959 0.248047
vt 0.319430 0.248047
vt 0.319430 0.124811
vt 0.196195 0.124811
vt 0.980517 0.985094
vt 0.319430 0.494518
vt 0.294627 0.392995
vn 0.0000 1.0000 0.0000
vn 1.0000 0.0000 0.0000
vn 0.0000 0.0000 1.0000
vn 0.0000 -1.0000 0.0000
vn -0.0000 0.0000 -1.0000
vn -1.0000 0.0000 0.0000
usemtl Material
s off
f 5/1/1 3/2/1 1/3/1
f 3/4/2 8/5/2 4/6/2
f 7/7/3 6/8/3 8/9/3
f 2/10/4 8/11/4 6/12/4
f 1/13/5 4/6/5 2/10/5
f 5/14/6 2/10/6 6/15/6
f 5/1/1 7/16/1 3/2/1
f 3/4/2 7/17/2 8/5/2
f 7/7/3 5/18/3 6/8/3
f 2/10/4 4/6/4 8/11/4
f 1/13/5 3/4/5 4/6/5
f 5/14/6 1/13/6 2/10/6
