# Blender v2.93.1 OBJ File: 'TopWall.blend'
# www.blender.org
mtllib TopWall.mtl
o Cube
v -25.000000 1.000000 -0.499999
v -25.000000 -1.000000 -0.499999
v 25.000000 1.000000 -0.500001
v 25.000000 -1.000000 -0.500001
v -25.000000 1.000000 0.500001
v -25.000000 -1.000000 0.500001
v 25.000000 1.000000 0.499999
v 25.000000 -1.000000 0.499999
vt 0.999514 0.006345
vt 0.504392 0.501468
vt 0.504392 0.006345
vt 0.625000 0.750000
vt 0.375000 1.000000
vt 0.375000 0.750000
vt 0.625000 0.000000
vt 0.375000 0.250000
vt 0.375000 0.000000
vt 0.375000 0.500000
vt 0.125000 0.750000
vt 0.125000 0.500000
vt 0.625000 0.500000
vt 0.625000 0.250000
vt 0.999514 0.501468
vt 0.625000 1.000000
vn 0.0000 1.0000 0.0000
vn 1.0000 0.0000 0.0000
vn 0.0000 0.0000 1.0000
vn 0.0000 -1.0000 0.0000
vn -0.0000 0.0000 -1.0000
vn -1.0000 0.0000 0.0000
usemtl Material
s off
f 5/1/1 3/2/1 1/3/1
f 3/4/2 8/5/2 4/6/2
f 7/7/3 6/8/3 8/9/3
f 2/10/4 8/11/4 6/12/4
f 1/13/5 4/6/5 2/10/5
f 5/14/6 2/10/6 6/8/6
f 5/1/1 7/15/1 3/2/1
f 3/4/2 7/16/2 8/5/2
f 7/7/3 5/14/3 6/8/3
f 2/10/4 4/6/4 8/11/4
f 1/13/5 3/4/5 4/6/5
f 5/14/6 1/13/6 2/10/6
