# Blender v2.93.1 OBJ File: ''
# www.blender.org
mtllib wall.mtl
o Cube
v 1.000000 1.000000 -1.000000
v 1.000000 -1.000000 -1.000000
v 1.000000 1.000000 1.000000
v 1.000000 -1.000000 1.000000
v -1.000000 1.000000 -1.000000
v -1.000000 -1.000000 -1.000000
v -1.000000 1.000000 1.000000
v -1.000000 -1.000000 1.000000
vt 0.986177 0.486583
vt 0.513874 0.486583
vt 0.513874 0.014279
vt 0.986177 0.014279
vt 0.511149 0.016503
vt 0.990155 0.016503
vt 0.990155 0.495509
vt 0.511149 0.495509
vt 0.511231 0.007613
vt 0.993173 0.007613
vt 0.993173 0.489554
vt 0.511231 0.489554
vt 0.508430 0.006033
vt 0.994126 0.006033
vt 0.994126 0.491729
vt 0.508430 0.491729
vt 0.980175 0.483054
vt 0.524229 0.483054
vt 0.524229 0.027109
vt 0.980175 0.027109
vt 0.510800 0.006555
vt 0.993604 0.006555
vt 0.993604 0.489359
vt 0.510800 0.489359
vn 0.0000 1.0000 0.0000
vn 0.0000 0.0000 1.0000
vn -1.0000 0.0000 0.0000
vn 0.0000 -1.0000 0.0000
vn 1.0000 0.0000 0.0000
vn 0.0000 0.0000 -1.0000
usemtl Material
s off
f 1/1/1 5/2/1 7/3/1 3/4/1
f 4/5/2 3/6/2 7/7/2 8/8/2
f 8/9/3 7/10/3 5/11/3 6/12/3
f 6/13/4 2/14/4 4/15/4 8/16/4
f 2/17/5 1/18/5 3/19/5 4/20/5
f 6/21/6 5/22/6 1/23/6 2/24/6
